<svg xmlns="http://www.w3.org/2000/svg" xmlns:xlink="http://www.w3.org/1999/xlink" width="1360" height="1760"><g transform="translate(0 0)"><path d="M100.7 76h228.6v168H100.7z" fill="#fff"/><path d="M100.7 76h228.6v168H100.7zM100.7 116h228.6" stroke="#000" stroke-width="2" fill="none"/><use xlink:href="#a" transform="matrix(1,0,0,1,110.71428571428572,76) translate(77.55 23.6)"/><use xlink:href="#b" transform="matrix(1,0,0,1,105.71428571428572,118.5) translate(0 17.1)"/><use xlink:href="#c" transform="matrix(1,0,0,1,105.71428571428572,150.5) translate(0 17.1)"/><use xlink:href="#d" transform="matrix(1,0,0,1,105.71428571428572,182.5) translate(0 17.1)"/><use xlink:href="#e" transform="matrix(1,0,0,1,105.71428571428572,214.5) translate(0 17.1)"/><path d="M540 140h280v616H540z" fill="#fff"/><path d="M540 140h280v616H540zM540 180h280" stroke="#000" stroke-width="2" fill="none"/><use xlink:href="#f" transform="matrix(1,0,0,1,550,140) translate(101.55 23.6)"/><use xlink:href="#b" transform="matrix(1,0,0,1,545,182.5) translate(0 17.1)"/><use xlink:href="#g" transform="matrix(1,0,0,1,545,214.5) translate(0 17.1)"/><use xlink:href="#h" transform="matrix(1,0,0,1,545,246.5) translate(0 17.1)"/><use xlink:href="#i" transform="matrix(1,0,0,1,545,278.5) translate(0 17.1)"/><use xlink:href="#j" transform="matrix(1,0,0,1,545,310.5) translate(0 17.1)"/><use xlink:href="#k" transform="matrix(1,0,0,1,545,342.5) translate(0 17.1)"/><use xlink:href="#l" transform="matrix(1,0,0,1,545,374.5) translate(0 17.1)"/><use xlink:href="#m" transform="matrix(1,0,0,1,545,406.5) translate(0 17.1)"/><use xlink:href="#n" transform="matrix(1,0,0,1,545,438.5) translate(0 17.1)"/><use xlink:href="#o" transform="matrix(1,0,0,1,545,470.5) translate(0 17.1)"/><use xlink:href="#p" transform="matrix(1,0,0,1,545,502.5) translate(0 17.1)"/><use xlink:href="#q" transform="matrix(1,0,0,1,545,534.5) translate(0 17.1)"/><use xlink:href="#r" transform="matrix(1,0,0,1,545,566.5) translate(0 17.1)"/><use xlink:href="#s" transform="matrix(1,0,0,1,545,598.5) translate(0 17.1)"/><use xlink:href="#t" transform="matrix(1,0,0,1,545,630.5) translate(0 17.1)"/><use xlink:href="#u" transform="matrix(1,0,0,1,545,662.5) translate(0 17.1)"/><use xlink:href="#v" transform="matrix(1,0,0,1,545,694.5) translate(0 17.1)"/><use xlink:href="#w" transform="matrix(1,0,0,1,545,726.5) translate(0 17.1)"/><path d="M101 280h228.57v136H101z" fill="#fff"/><path d="M101 280h228.57v136H101zM101 320h228.57" stroke="#000" stroke-width="2" fill="none"/><use xlink:href="#x" transform="matrix(1,0,0,1,111,280) translate(71.525 23.6)"/><use xlink:href="#b" transform="matrix(1,0,0,1,106,322.5) translate(0 17.1)"/><use xlink:href="#c" transform="matrix(1,0,0,1,106,354.5) translate(0 17.1)"/><use xlink:href="#y" transform="matrix(1,0,0,1,106,386.5) translate(0 17.1)"/><path d="M100 496.8h228.57v104H100z" fill="#fff"/><path d="M100 496.8h228.57v104H100zM100 536.8h228.57" stroke="#000" stroke-width="2" fill="none"/><use xlink:href="#z" transform="matrix(1,0,0,1,110,496.79389312977094) translate(33.099999999999994 23.6)"/><use xlink:href="#b" transform="matrix(1,0,0,1,105,539.2938931297709) translate(0 17.1)"/><use xlink:href="#A" transform="matrix(1,0,0,1,105,571.2938931297709) translate(0 17.1)"/><path d="M329.3 132H420v64h120" stroke="#000" stroke-width="2" fill="none"/><path d="M351.52 132l-21.8 10.9-.43-.9v-1.12l17.75-8.88-17.76-8.88V122l.43-.9z"/><path d="M350.3 142h-2v-20h2zM521 206h-2v-20h2z"/><path d="M329.57 336H420V196h120" stroke="#000" stroke-width="2" fill="none"/><path d="M351.8 336l-21.78 10.9-.45-.9v-1.12l17.77-8.88-17.77-8.88V326l.45-.9z"/><path d="M350.57 346h-2v-20h2zM521 206h-2v-20h2z"/><path d="M328.57 552.8H420V196h120" stroke="#000" stroke-width="2" fill="none"/><path d="M350.8 552.8l-21.78 10.9-.45-.9v-1.12l17.77-8.9-17.77-8.87v-1.1l.45-.9z"/><path d="M349.57 562.8h-2v-20h2zM521 206h-2v-20h2z"/><path d="M991.35 76.44h187v104h-187z" fill="#fff"/><path d="M991.35 76.44h187v104h-187zM991.35 116.44h187" stroke="#000" stroke-width="2" fill="none"/><use xlink:href="#B" transform="matrix(1,0,0,1,1001.3506493506494,76.44477073770486) translate(56.525 23.6)"/><use xlink:href="#b" transform="matrix(1,0,0,1,996.3506493506494,118.94477073770486) translate(0 17.1)"/><use xlink:href="#C" transform="matrix(1,0,0,1,996.3506493506494,150.94477073770486) translate(0 17.1)"/><path d="M991.35 255.07h187v104h-187z" fill="#fff"/><path d="M991.35 255.07h187v104h-187zM991.35 295.07h187" stroke="#000" stroke-width="2" fill="none"/><use xlink:href="#D" transform="matrix(1,0,0,1,1001.3506493506494,255.07072493617818) translate(47.55 23.6)"/><use xlink:href="#b" transform="matrix(1,0,0,1,996.3506493506494,297.5707249361782) translate(0 17.1)"/><use xlink:href="#C" transform="matrix(1,0,0,1,996.3506493506494,329.5707249361782) translate(0 17.1)"/><path d="M991.35 433.7h187v104h-187z" fill="#fff"/><path d="M991.35 433.7h187v104h-187zM991.35 473.7h187" stroke="#000" stroke-width="2" fill="none"/><use xlink:href="#E" transform="matrix(1,0,0,1,1001.3506493506494,433.6966791346514) translate(46.05 23.6)"/><use xlink:href="#b" transform="matrix(1,0,0,1,996.3506493506494,476.1966791346514) translate(0 17.1)"/><use xlink:href="#F" transform="matrix(1,0,0,1,996.3506493506494,508.1966791346514) translate(0 17.1)"/><path d="M991.35 132.44h-85.67V196H820" stroke="#000" stroke-width="2" fill="none"/><path d="M991.35 122.44v1.12l-17.76 8.88 17.75 8.9v1.1l-.45.9-21.8-10.9 21.8-10.9z"/><path d="M972.35 142.44h-2v-20h2zM841 206h-2v-20h2z"/><path d="M991.35 311.07h-85.67V196H820" stroke="#000" stroke-width="2" fill="none"/><path d="M991.35 301.07v1.12l-17.76 8.87 17.75 8.88v1.12l-.45.9-21.8-10.9 21.8-10.9z"/><path d="M972.35 321.07h-2v-20h2zM841 206h-2v-20h2z"/><path d="M820 196h85.68v293.7h85.67" stroke="#000" stroke-width="2" fill="none"/><path d="M841 206h-2v-20h2zM991.35 479.7v1.1l-17.76 8.9 17.75 8.88v1.12l-.45.9-21.8-10.9 21.8-10.9z"/><path d="M540 795h280v104H540z" fill="#fff"/><path d="M540 795h280v104H540zM540 835h280" stroke="#000" stroke-width="2" fill="none"/><use xlink:href="#G" transform="matrix(1,0,0,1,550,795) translate(102.525 23.6)"/><use xlink:href="#H" transform="matrix(1,0,0,1,545,837.5) translate(0 17.1)"/><use xlink:href="#I" transform="matrix(1,0,0,1,545,869.5) translate(0 17.1)"/><path d="M991.82 614.1h187.36v104H991.82z" fill="#fff"/><path d="M991.82 614.1h187.36v104H991.82zM991.82 654.1h187.36" stroke="#000" stroke-width="2" fill="none"/><use xlink:href="#J" transform="matrix(1,0,0,1,1001.8181818181819,614.1002479642722) translate(59.525 23.6)"/><use xlink:href="#b" transform="matrix(1,0,0,1,996.8181818181819,656.6002479642722) translate(0 17.1)"/><use xlink:href="#K" transform="matrix(1,0,0,1,996.8181818181819,688.6002479642722) translate(0 17.1)"/><path d="M820 196h85.9v474.1h85.92" stroke="#000" stroke-width="2" fill="none"/><path d="M841 206h-2v-20h2zM991.82 660.1v1.12l-17.77 8.88 17.77 8.88v1.12l-.45.9-21.8-10.9 21.8-10.9z"/><path d="M820 851h50V702.1h121.82" stroke="#000" stroke-width="2" fill="none"/><path d="M841 861h-2v-20h2zM991.82 692.1v1.12l-17.77 8.88 17.77 8.88v1.12l-.45.9-21.8-10.9 21.8-10.9z"/><path d="M991 794.5h187.36v104H991z" fill="#fff"/><path d="M991 794.5h187.36v104H991zM991 834.5h187.36" stroke="#000" stroke-width="2" fill="none"/><use xlink:href="#L" transform="matrix(1,0,0,1,1001.0000000000001,794.503816793893) translate(57.599999999999994 23.6)"/><use xlink:href="#b" transform="matrix(1,0,0,1,996.0000000000001,837.003816793893) translate(0 17.1)"/><use xlink:href="#K" transform="matrix(1,0,0,1,996.0000000000001,869.003816793893) translate(0 17.1)"/><path d="M991.82 973.13H1180v104H991.82z" fill="#fff"/><path d="M991.82 973.13H1180v104H991.82zM991.82 1013.13H1180" stroke="#000" stroke-width="2" fill="none"/><use xlink:href="#M" transform="matrix(1,0,0,1,1001.8181818181819,973.1297709923662) translate(50.075 23.6)"/><use xlink:href="#b" transform="matrix(1,0,0,1,996.8181818181819,1015.6297709923662) translate(0 17.1)"/><use xlink:href="#K" transform="matrix(1,0,0,1,996.8181818181819,1047.629770992366) translate(0 17.1)"/><path d="M820 851h50v31.5h121" stroke="#000" stroke-width="2" fill="none"/><path d="M841 861h-2v-20h2zM991 872.5v1.12l-17.76 8.88 17.76 8.9v1.1l-.45.9-21.8-10.9 21.8-10.9z"/><path d="M820 851h50v210.13h121.82" stroke="#000" stroke-width="2" fill="none"/><path d="M841 861h-2v-20h2zM991.82 1051.13v1.12l-17.77 8.88 17.77 8.88v1.13l-.45.9-21.8-10.9 21.8-10.9z"/><path d="M820 196h85.5v654.5H991" stroke="#000" stroke-width="2" fill="none"/><path d="M841 206h-2v-20h2zM991 840.5v1.12l-17.76 8.88 17.76 8.9v1.1l-.45.9-21.8-10.9 21.8-10.9z"/><path d="M820 196h86v833.13h85.82" stroke="#000" stroke-width="2" fill="none"/><path d="M841 206h-2v-20h2zM991.82 1019.13v1.12l-17.77 8.88 17.77 8.88v1.13l-.45.9-21.8-10.9 21.8-10.9z"/><path d="M100 660h229v104H100z" fill="#fff"/><path d="M100 660h229v104H100zM100 700h229" stroke="#000" stroke-width="2" fill="none"/><use xlink:href="#N" transform="matrix(1,0,0,1,110,660) translate(21.07499999999999 23.6)"/><use xlink:href="#b" transform="matrix(1,0,0,1,105,702.5) translate(0 17.1)"/><use xlink:href="#O" transform="matrix(1,0,0,1,105,734.5) translate(0 17.1)"/><path d="M100 820h229v104H100z" fill="#fff"/><path d="M100 820h229v104H100zM100 860h229" stroke="#000" stroke-width="2" fill="none"/><use xlink:href="#P" transform="matrix(1,0,0,1,110,820) translate(68.025 23.6)"/><use xlink:href="#Q" transform="matrix(1,0,0,1,105,862.5) translate(0 17.1)"/><use xlink:href="#O" transform="matrix(1,0,0,1,105,894.5) translate(0 17.1)"/><path d="M329 908h91V748h-91" stroke="#000" stroke-width="2" fill="none"/><path d="M350 918h-2v-20h2zM351.24 748l-21.8 10.9-.44-.9v-1.12l17.76-8.88-17.76-8.88V738l.45-.9z"/><path d="M540 196H420v520h-91" stroke="#000" stroke-width="2" fill="none"/><path d="M521 206h-2v-20h2zM351.24 716l-21.8 10.9-.44-.9v-1.12l17.76-8.88-17.76-8.88V706l.45-.9z"/><defs><path d="M114-163C36-179 61-72 57 0H25l-1-190h30c1 12-1 29 2 39 6-27 23-49 58-41v29" id="R"/><path d="M141-36C126-15 110 5 73 4 37 3 15-17 15-53c-1-64 63-63 125-63 3-35-9-54-41-54-24 1-41 7-42 31l-33-3c5-37 33-52 76-52 45 0 72 20 72 64v82c-1 20 7 32 28 27v20c-31 9-61-2-59-35zM48-53c0 20 12 33 32 33 41-3 63-29 60-74-43 2-92-5-92 41" id="S"/><path d="M59-47c-2 24 18 29 38 22v24C64 9 27 4 27-40v-127H5v-23h24l9-43h21v43h35v23H59v120" id="T"/><path d="M24-231v-30h32v30H24zM24 0v-190h32V0H24" id="U"/><path d="M117-194c89-4 53 116 60 194h-32v-121c0-31-8-49-39-48C34-167 62-67 57 0H25l-1-190h30c1 10-1 24 2 32 11-22 29-35 61-36" id="V"/><path d="M177-190C167-65 218 103 67 71c-23-6-38-20-44-43l32-5c15 47 100 32 89-28v-30C133-14 115 1 83 1 29 1 15-40 15-95c0-56 16-97 71-98 29-1 48 16 59 35 1-10 0-23 2-32h30zM94-22c36 0 50-32 50-73 0-42-14-75-50-75-39 0-46 34-46 75s6 73 46 73" id="W"/><path d="M135-143c-3-34-86-38-87 0 15 53 115 12 119 90S17 21 10-45l28-5c4 36 97 45 98 0-10-56-113-15-118-90-4-57 82-63 122-42 12 7 21 19 24 35" id="X"/><g id="a"><use transform="matrix(0.05,0,0,0.05,0,0)" xlink:href="#R"/><use transform="matrix(0.05,0,0,0.05,5.95,0)" xlink:href="#S"/><use transform="matrix(0.05,0,0,0.05,15.949999999999998,0)" xlink:href="#T"/><use transform="matrix(0.05,0,0,0.05,20.95,0)" xlink:href="#U"/><use transform="matrix(0.05,0,0,0.05,24.9,0)" xlink:href="#V"/><use transform="matrix(0.05,0,0,0.05,34.9,0)" xlink:href="#W"/><use transform="matrix(0.05,0,0,0.05,44.9,0)" xlink:href="#X"/></g><path d="M210-169c-67 3-38 105-44 169h-31v-121c0-29-5-50-35-48C34-165 62-65 56 0H25l-1-190h30c1 10-1 24 2 32 10-44 99-50 107 0 11-21 27-35 58-36 85-2 47 119 55 194h-31v-121c0-29-5-49-35-48" id="Y"/><path d="M85-194c31 0 48 13 60 33l-1-100h32l1 261h-30c-2-10 0-23-3-31C134-8 116 4 85 4 32 4 16-35 15-94c0-66 23-100 70-100zm9 24c-40 0-46 34-46 75 0 40 6 74 45 74 42 0 51-32 51-76 0-42-9-74-50-73" id="Z"/><path d="M115-194c53 0 69 39 70 98 0 66-23 100-70 100C84 3 66-7 56-30L54 0H23l1-261h32v101c10-23 28-34 59-34zm-8 174c40 0 45-34 45-75 0-40-5-75-45-74-42 0-51 32-51 76 0 43 10 73 51 73" id="aa"/><path d="M-5 72V49h209v23H-5" id="ab"/><g id="b"><use transform="matrix(0.05,0,0,0.05,0,0)" xlink:href="#U"/><use transform="matrix(0.05,0,0,0.05,3.95,0)" xlink:href="#Y"/><use transform="matrix(0.05,0,0,0.05,18.900000000000002,0)" xlink:href="#Z"/><use transform="matrix(0.05,0,0,0.05,28.900000000000002,0)" xlink:href="#aa"/><use transform="matrix(0.05,0,0,0.05,38.900000000000006,0)" xlink:href="#ab"/><use transform="matrix(0.05,0,0,0.05,48.900000000000006,0)" xlink:href="#U"/><use transform="matrix(0.05,0,0,0.05,52.85,0)" xlink:href="#Z"/></g><path d="M84 4C-5 8 30-112 23-190h32v120c0 31 7 50 39 49 72-2 45-101 50-169h31l1 190h-30c-1-10 1-25-2-33-11 22-28 36-60 37" id="ac"/><path d="M100-194c63 0 86 42 84 106H49c0 40 14 67 53 68 26 1 43-12 49-29l28 8c-11 28-37 45-77 45C44 4 14-33 15-96c1-61 26-98 85-98zm52 81c6-60-76-77-97-28-3 7-6 17-6 28h103" id="ad"/><g id="c"><use transform="matrix(0.05,0,0,0.05,0,0)" xlink:href="#ac"/><use transform="matrix(0.05,0,0,0.05,10,0)" xlink:href="#X"/><use transform="matrix(0.05,0,0,0.05,19,0)" xlink:href="#ad"/><use transform="matrix(0.05,0,0,0.05,29,0)" xlink:href="#R"/><use transform="matrix(0.05,0,0,0.05,34.95,0)" xlink:href="#ab"/><use transform="matrix(0.05,0,0,0.05,44.95,0)" xlink:href="#U"/><use transform="matrix(0.05,0,0,0.05,48.900000000000006,0)" xlink:href="#Z"/></g><g id="d"><use transform="matrix(0.05,0,0,0.05,0,0)" xlink:href="#ac"/><use transform="matrix(0.05,0,0,0.05,10,0)" xlink:href="#X"/><use transform="matrix(0.05,0,0,0.05,19,0)" xlink:href="#ad"/><use transform="matrix(0.05,0,0,0.05,29,0)" xlink:href="#R"/><use transform="matrix(0.05,0,0,0.05,34.95,0)" xlink:href="#ab"/><use transform="matrix(0.05,0,0,0.05,44.95,0)" xlink:href="#R"/><use transform="matrix(0.05,0,0,0.05,50.900000000000006,0)" xlink:href="#S"/><use transform="matrix(0.05,0,0,0.05,60.900000000000006,0)" xlink:href="#T"/><use transform="matrix(0.05,0,0,0.05,65.9,0)" xlink:href="#U"/><use transform="matrix(0.05,0,0,0.05,69.85000000000001,0)" xlink:href="#V"/><use transform="matrix(0.05,0,0,0.05,79.85000000000001,0)" xlink:href="#W"/></g><g id="e"><use transform="matrix(0.05,0,0,0.05,0,0)" xlink:href="#R"/><use transform="matrix(0.05,0,0,0.05,5.95,0)" xlink:href="#S"/><use transform="matrix(0.05,0,0,0.05,15.949999999999998,0)" xlink:href="#T"/><use transform="matrix(0.05,0,0,0.05,20.95,0)" xlink:href="#U"/><use transform="matrix(0.05,0,0,0.05,24.9,0)" xlink:href="#V"/><use transform="matrix(0.05,0,0,0.05,34.9,0)" xlink:href="#W"/><use transform="matrix(0.05,0,0,0.05,44.9,0)" xlink:href="#ab"/><use transform="matrix(0.05,0,0,0.05,54.900000000000006,0)" xlink:href="#Z"/><use transform="matrix(0.05,0,0,0.05,64.9,0)" xlink:href="#S"/><use transform="matrix(0.05,0,0,0.05,74.9,0)" xlink:href="#T"/><use transform="matrix(0.05,0,0,0.05,79.9,0)" xlink:href="#ad"/></g><path d="M100-194c62-1 85 37 85 99 1 63-27 99-86 99S16-35 15-95c0-66 28-99 85-99zM99-20c44 1 53-31 53-75 0-43-8-75-51-75s-53 32-53 75 10 74 51 75" id="ae"/><path d="M108 0H70L1-190h34L89-25l56-165h34" id="af"/><g id="f"><use transform="matrix(0.05,0,0,0.05,0,0)" xlink:href="#Y"/><use transform="matrix(0.05,0,0,0.05,14.950000000000001,0)" xlink:href="#ae"/><use transform="matrix(0.05,0,0,0.05,24.950000000000003,0)" xlink:href="#af"/><use transform="matrix(0.05,0,0,0.05,33.95,0)" xlink:href="#U"/><use transform="matrix(0.05,0,0,0.05,37.900000000000006,0)" xlink:href="#ad"/><use transform="matrix(0.05,0,0,0.05,47.900000000000006,0)" xlink:href="#X"/></g><path d="M24 0v-261h32V0H24" id="ag"/><g id="g"><use transform="matrix(0.05,0,0,0.05,0,0)" xlink:href="#T"/><use transform="matrix(0.05,0,0,0.05,5,0)" xlink:href="#U"/><use transform="matrix(0.05,0,0,0.05,8.95,0)" xlink:href="#T"/><use transform="matrix(0.05,0,0,0.05,13.949999999999998,0)" xlink:href="#ag"/><use transform="matrix(0.05,0,0,0.05,17.9,0)" xlink:href="#ad"/></g><path d="M179-190L93 31C79 59 56 82 12 73V49c39 6 53-20 64-50L1-190h34L92-34l54-156h33" id="ah"/><g id="h"><use transform="matrix(0.05,0,0,0.05,0,0)" xlink:href="#ah"/><use transform="matrix(0.05,0,0,0.05,9,0)" xlink:href="#ad"/><use transform="matrix(0.05,0,0,0.05,19,0)" xlink:href="#S"/><use transform="matrix(0.05,0,0,0.05,29,0)" xlink:href="#R"/></g><g id="i"><use transform="matrix(0.05,0,0,0.05,0,0)" xlink:href="#U"/><use transform="matrix(0.05,0,0,0.05,3.95,0)" xlink:href="#Y"/><use transform="matrix(0.05,0,0,0.05,18.900000000000002,0)" xlink:href="#Z"/><use transform="matrix(0.05,0,0,0.05,28.900000000000002,0)" xlink:href="#aa"/><use transform="matrix(0.05,0,0,0.05,38.900000000000006,0)" xlink:href="#ab"/><use transform="matrix(0.05,0,0,0.05,48.900000000000006,0)" xlink:href="#R"/><use transform="matrix(0.05,0,0,0.05,54.85,0)" xlink:href="#S"/><use transform="matrix(0.05,0,0,0.05,64.85000000000001,0)" xlink:href="#T"/><use transform="matrix(0.05,0,0,0.05,69.85000000000001,0)" xlink:href="#U"/><use transform="matrix(0.05,0,0,0.05,73.80000000000001,0)" xlink:href="#V"/><use transform="matrix(0.05,0,0,0.05,83.80000000000001,0)" xlink:href="#W"/></g><path d="M101-234c-31-9-42 10-38 44h38v23H63V0H32v-167H5v-23h27c-7-52 17-82 69-68v24" id="ai"/><g id="j"><use transform="matrix(0.05,0,0,0.05,0,0)" xlink:href="#V"/><use transform="matrix(0.05,0,0,0.05,10,0)" xlink:href="#ac"/><use transform="matrix(0.05,0,0,0.05,20,0)" xlink:href="#Y"/><use transform="matrix(0.05,0,0,0.05,34.95,0)" xlink:href="#aa"/><use transform="matrix(0.05,0,0,0.05,44.95,0)" xlink:href="#ad"/><use transform="matrix(0.05,0,0,0.05,54.95,0)" xlink:href="#R"/><use transform="matrix(0.05,0,0,0.05,60.900000000000006,0)" xlink:href="#ab"/><use transform="matrix(0.05,0,0,0.05,70.9,0)" xlink:href="#ae"/><use transform="matrix(0.05,0,0,0.05,80.9,0)" xlink:href="#ai"/><use transform="matrix(0.05,0,0,0.05,85.9,0)" xlink:href="#ab"/><use transform="matrix(0.05,0,0,0.05,95.9,0)" xlink:href="#R"/><use transform="matrix(0.05,0,0,0.05,101.85000000000001,0)" xlink:href="#S"/><use transform="matrix(0.05,0,0,0.05,111.85000000000001,0)" xlink:href="#T"/><use transform="matrix(0.05,0,0,0.05,116.85000000000001,0)" xlink:href="#U"/><use transform="matrix(0.05,0,0,0.05,120.80000000000001,0)" xlink:href="#V"/><use transform="matrix(0.05,0,0,0.05,130.8,0)" xlink:href="#W"/><use transform="matrix(0.05,0,0,0.05,140.8,0)" xlink:href="#X"/></g><g id="k"><use transform="matrix(0.05,0,0,0.05,0,0)" xlink:href="#Z"/><use transform="matrix(0.05,0,0,0.05,10,0)" xlink:href="#ac"/><use transform="matrix(0.05,0,0,0.05,20,0)" xlink:href="#R"/><use transform="matrix(0.05,0,0,0.05,25.950000000000003,0)" xlink:href="#S"/><use transform="matrix(0.05,0,0,0.05,35.95,0)" xlink:href="#T"/><use transform="matrix(0.05,0,0,0.05,40.95,0)" xlink:href="#U"/><use transform="matrix(0.05,0,0,0.05,44.900000000000006,0)" xlink:href="#ae"/><use transform="matrix(0.05,0,0,0.05,54.900000000000006,0)" xlink:href="#V"/></g><path d="M96-169c-40 0-48 33-48 73s9 75 48 75c24 0 41-14 43-38l32 2c-6 37-31 61-74 61-59 0-76-41-82-99-10-93 101-131 147-64 4 7 5 14 7 22l-32 3c-4-21-16-35-41-35" id="aj"/><g id="l"><use transform="matrix(0.05,0,0,0.05,0,0)" xlink:href="#aj"/><use transform="matrix(0.05,0,0,0.05,9,0)" xlink:href="#ae"/><use transform="matrix(0.05,0,0,0.05,19,0)" xlink:href="#V"/><use transform="matrix(0.05,0,0,0.05,29,0)" xlink:href="#T"/><use transform="matrix(0.05,0,0,0.05,34,0)" xlink:href="#ad"/><use transform="matrix(0.05,0,0,0.05,44,0)" xlink:href="#V"/><use transform="matrix(0.05,0,0,0.05,54,0)" xlink:href="#T"/><use transform="matrix(0.05,0,0,0.05,59,0)" xlink:href="#ab"/><use transform="matrix(0.05,0,0,0.05,69,0)" xlink:href="#R"/><use transform="matrix(0.05,0,0,0.05,74.95,0)" xlink:href="#S"/><use transform="matrix(0.05,0,0,0.05,84.95,0)" xlink:href="#T"/><use transform="matrix(0.05,0,0,0.05,89.95,0)" xlink:href="#U"/><use transform="matrix(0.05,0,0,0.05,93.9,0)" xlink:href="#V"/><use transform="matrix(0.05,0,0,0.05,103.9,0)" xlink:href="#W"/></g><path d="M115-194c55 1 70 41 70 98S169 2 115 4C84 4 66-9 55-30l1 105H24l-1-265h31l2 30c10-21 28-34 59-34zm-8 174c40 0 45-34 45-75s-6-73-45-74c-42 0-51 32-51 76 0 43 10 73 51 73" id="ak"/><g id="m"><use transform="matrix(0.05,0,0,0.05,0,0)" xlink:href="#Z"/><use transform="matrix(0.05,0,0,0.05,10,0)" xlink:href="#ad"/><use transform="matrix(0.05,0,0,0.05,20,0)" xlink:href="#X"/><use transform="matrix(0.05,0,0,0.05,29,0)" xlink:href="#aj"/><use transform="matrix(0.05,0,0,0.05,38,0)" xlink:href="#R"/><use transform="matrix(0.05,0,0,0.05,43.95,0)" xlink:href="#U"/><use transform="matrix(0.05,0,0,0.05,47.900000000000006,0)" xlink:href="#ak"/><use transform="matrix(0.05,0,0,0.05,57.900000000000006,0)" xlink:href="#T"/><use transform="matrix(0.05,0,0,0.05,62.900000000000006,0)" xlink:href="#U"/><use transform="matrix(0.05,0,0,0.05,66.85000000000001,0)" xlink:href="#ae"/><use transform="matrix(0.05,0,0,0.05,76.85000000000001,0)" xlink:href="#V"/></g><g id="n"><use transform="matrix(0.05,0,0,0.05,0,0)" xlink:href="#Y"/><use transform="matrix(0.05,0,0,0.05,14.950000000000001,0)" xlink:href="#ad"/><use transform="matrix(0.05,0,0,0.05,24.950000000000003,0)" xlink:href="#T"/><use transform="matrix(0.05,0,0,0.05,29.950000000000003,0)" xlink:href="#S"/><use transform="matrix(0.05,0,0,0.05,39.95,0)" xlink:href="#X"/><use transform="matrix(0.05,0,0,0.05,48.95,0)" xlink:href="#aj"/><use transform="matrix(0.05,0,0,0.05,57.95,0)" xlink:href="#ae"/><use transform="matrix(0.05,0,0,0.05,67.95,0)" xlink:href="#R"/><use transform="matrix(0.05,0,0,0.05,73.9,0)" xlink:href="#ad"/></g><g id="o"><use transform="matrix(0.05,0,0,0.05,0,0)" xlink:href="#X"/><use transform="matrix(0.05,0,0,0.05,9,0)" xlink:href="#T"/><use transform="matrix(0.05,0,0,0.05,14,0)" xlink:href="#ae"/><use transform="matrix(0.05,0,0,0.05,24,0)" xlink:href="#R"/><use transform="matrix(0.05,0,0,0.05,29.950000000000003,0)" xlink:href="#ah"/><use transform="matrix(0.05,0,0,0.05,38.95,0)" xlink:href="#ag"/><use transform="matrix(0.05,0,0,0.05,42.900000000000006,0)" xlink:href="#U"/><use transform="matrix(0.05,0,0,0.05,46.85000000000001,0)" xlink:href="#V"/><use transform="matrix(0.05,0,0,0.05,56.85,0)" xlink:href="#ad"/></g><g id="p"><use transform="matrix(0.05,0,0,0.05,0,0)" xlink:href="#V"/><use transform="matrix(0.05,0,0,0.05,10,0)" xlink:href="#ac"/><use transform="matrix(0.05,0,0,0.05,20,0)" xlink:href="#Y"/><use transform="matrix(0.05,0,0,0.05,34.95,0)" xlink:href="#aa"/><use transform="matrix(0.05,0,0,0.05,44.95,0)" xlink:href="#ad"/><use transform="matrix(0.05,0,0,0.05,54.95,0)" xlink:href="#R"/><use transform="matrix(0.05,0,0,0.05,60.900000000000006,0)" xlink:href="#ab"/><use transform="matrix(0.05,0,0,0.05,70.9,0)" xlink:href="#ae"/><use transform="matrix(0.05,0,0,0.05,80.9,0)" xlink:href="#ai"/><use transform="matrix(0.05,0,0,0.05,85.9,0)" xlink:href="#ab"/><use transform="matrix(0.05,0,0,0.05,95.9,0)" xlink:href="#aj"/><use transform="matrix(0.05,0,0,0.05,104.9,0)" xlink:href="#R"/><use transform="matrix(0.05,0,0,0.05,110.85000000000001,0)" xlink:href="#U"/><use transform="matrix(0.05,0,0,0.05,114.80000000000001,0)" xlink:href="#T"/><use transform="matrix(0.05,0,0,0.05,119.80000000000001,0)" xlink:href="#U"/><use transform="matrix(0.05,0,0,0.05,123.75,0)" xlink:href="#aj"/><use transform="matrix(0.05,0,0,0.05,132.75,0)" xlink:href="#X"/></g><path d="M206 0h-36l-40-164L89 0H53L-1-190h32L70-26l43-164h34l41 164 42-164h31" id="al"/><g id="q"><use transform="matrix(0.05,0,0,0.05,0,0)" xlink:href="#V"/><use transform="matrix(0.05,0,0,0.05,10,0)" xlink:href="#ac"/><use transform="matrix(0.05,0,0,0.05,20,0)" xlink:href="#Y"/><use transform="matrix(0.05,0,0,0.05,34.95,0)" xlink:href="#aa"/><use transform="matrix(0.05,0,0,0.05,44.95,0)" xlink:href="#ad"/><use transform="matrix(0.05,0,0,0.05,54.95,0)" xlink:href="#R"/><use transform="matrix(0.05,0,0,0.05,60.900000000000006,0)" xlink:href="#ab"/><use transform="matrix(0.05,0,0,0.05,70.9,0)" xlink:href="#ae"/><use transform="matrix(0.05,0,0,0.05,80.9,0)" xlink:href="#ai"/><use transform="matrix(0.05,0,0,0.05,85.9,0)" xlink:href="#ab"/><use transform="matrix(0.05,0,0,0.05,95.9,0)" xlink:href="#ac"/><use transform="matrix(0.05,0,0,0.05,105.9,0)" xlink:href="#X"/><use transform="matrix(0.05,0,0,0.05,114.9,0)" xlink:href="#ad"/><use transform="matrix(0.05,0,0,0.05,124.9,0)" xlink:href="#R"/><use transform="matrix(0.05,0,0,0.05,130.85,0)" xlink:href="#ab"/><use transform="matrix(0.05,0,0,0.05,140.85,0)" xlink:href="#R"/><use transform="matrix(0.05,0,0,0.05,146.79999999999998,0)" xlink:href="#ad"/><use transform="matrix(0.05,0,0,0.05,156.79999999999998,0)" xlink:href="#af"/><use transform="matrix(0.05,0,0,0.05,165.79999999999998,0)" xlink:href="#U"/><use transform="matrix(0.05,0,0,0.05,169.74999999999997,0)" xlink:href="#ad"/><use transform="matrix(0.05,0,0,0.05,179.74999999999997,0)" xlink:href="#al"/><use transform="matrix(0.05,0,0,0.05,192.69999999999996,0)" xlink:href="#X"/></g><g id="r"><use transform="matrix(0.05,0,0,0.05,0,0)" xlink:href="#R"/><use transform="matrix(0.05,0,0,0.05,5.95,0)" xlink:href="#ad"/><use transform="matrix(0.05,0,0,0.05,15.949999999999998,0)" xlink:href="#ag"/><use transform="matrix(0.05,0,0,0.05,19.9,0)" xlink:href="#ad"/><use transform="matrix(0.05,0,0,0.05,29.899999999999995,0)" xlink:href="#S"/><use transform="matrix(0.05,0,0,0.05,39.9,0)" xlink:href="#X"/><use transform="matrix(0.05,0,0,0.05,48.9,0)" xlink:href="#ad"/><use transform="matrix(0.05,0,0,0.05,58.900000000000006,0)" xlink:href="#ab"/><use transform="matrix(0.05,0,0,0.05,68.9,0)" xlink:href="#Z"/><use transform="matrix(0.05,0,0,0.05,78.9,0)" xlink:href="#S"/><use transform="matrix(0.05,0,0,0.05,88.9,0)" xlink:href="#T"/><use transform="matrix(0.05,0,0,0.05,93.9,0)" xlink:href="#ad"/><use transform="matrix(0.05,0,0,0.05,103.9,0)" xlink:href="#ab"/><use transform="matrix(0.05,0,0,0.05,113.9,0)" xlink:href="#ac"/><use transform="matrix(0.05,0,0,0.05,123.9,0)" xlink:href="#X"/></g><g id="s"><use transform="matrix(0.05,0,0,0.05,0,0)" xlink:href="#ag"/><use transform="matrix(0.05,0,0,0.05,3.95,0)" xlink:href="#S"/><use transform="matrix(0.05,0,0,0.05,13.949999999999998,0)" xlink:href="#V"/><use transform="matrix(0.05,0,0,0.05,23.95,0)" xlink:href="#W"/><use transform="matrix(0.05,0,0,0.05,33.95,0)" xlink:href="#ac"/><use transform="matrix(0.05,0,0,0.05,43.95,0)" xlink:href="#S"/><use transform="matrix(0.05,0,0,0.05,53.95,0)" xlink:href="#W"/><use transform="matrix(0.05,0,0,0.05,63.95,0)" xlink:href="#ad"/></g><g id="t"><use transform="matrix(0.05,0,0,0.05,0,0)" xlink:href="#aa"/><use transform="matrix(0.05,0,0,0.05,10,0)" xlink:href="#ac"/><use transform="matrix(0.05,0,0,0.05,20,0)" xlink:href="#Z"/><use transform="matrix(0.05,0,0,0.05,30,0)" xlink:href="#W"/><use transform="matrix(0.05,0,0,0.05,40,0)" xlink:href="#ad"/><use transform="matrix(0.05,0,0,0.05,50,0)" xlink:href="#T"/></g><path d="M143 0L79-87 56-68V0H24v-261h32v163l83-92h37l-77 82L181 0h-38" id="am"/><g id="u"><use transform="matrix(0.05,0,0,0.05,0,0)" xlink:href="#ae"/><use transform="matrix(0.05,0,0,0.05,10,0)" xlink:href="#ak"/><use transform="matrix(0.05,0,0,0.05,20,0)" xlink:href="#ad"/><use transform="matrix(0.05,0,0,0.05,30,0)" xlink:href="#V"/><use transform="matrix(0.05,0,0,0.05,40,0)" xlink:href="#U"/><use transform="matrix(0.05,0,0,0.05,43.95,0)" xlink:href="#V"/><use transform="matrix(0.05,0,0,0.05,53.95,0)" xlink:href="#W"/><use transform="matrix(0.05,0,0,0.05,63.95,0)" xlink:href="#ab"/><use transform="matrix(0.05,0,0,0.05,73.95,0)" xlink:href="#al"/><use transform="matrix(0.05,0,0,0.05,86.9,0)" xlink:href="#ad"/><use transform="matrix(0.05,0,0,0.05,96.9,0)" xlink:href="#ad"/><use transform="matrix(0.05,0,0,0.05,106.9,0)" xlink:href="#am"/><use transform="matrix(0.05,0,0,0.05,115.9,0)" xlink:href="#ad"/><use transform="matrix(0.05,0,0,0.05,125.9,0)" xlink:href="#V"/><use transform="matrix(0.05,0,0,0.05,135.9,0)" xlink:href="#Z"/></g><g id="v"><use transform="matrix(0.05,0,0,0.05,0,0)" xlink:href="#W"/><use transform="matrix(0.05,0,0,0.05,10,0)" xlink:href="#R"/><use transform="matrix(0.05,0,0,0.05,15.949999999999998,0)" xlink:href="#ae"/><use transform="matrix(0.05,0,0,0.05,25.950000000000003,0)" xlink:href="#X"/><use transform="matrix(0.05,0,0,0.05,34.95,0)" xlink:href="#X"/></g><g id="w"><use transform="matrix(0.05,0,0,0.05,0,0)" xlink:href="#S"/><use transform="matrix(0.05,0,0,0.05,10,0)" xlink:href="#X"/><use transform="matrix(0.05,0,0,0.05,19,0)" xlink:href="#ak"/><use transform="matrix(0.05,0,0,0.05,29,0)" xlink:href="#ad"/><use transform="matrix(0.05,0,0,0.05,39,0)" xlink:href="#aj"/><use transform="matrix(0.05,0,0,0.05,48,0)" xlink:href="#T"/><use transform="matrix(0.05,0,0,0.05,53,0)" xlink:href="#ab"/><use transform="matrix(0.05,0,0,0.05,63,0)" xlink:href="#R"/><use transform="matrix(0.05,0,0,0.05,68.95,0)" xlink:href="#S"/><use transform="matrix(0.05,0,0,0.05,78.95,0)" xlink:href="#T"/><use transform="matrix(0.05,0,0,0.05,83.95,0)" xlink:href="#U"/><use transform="matrix(0.05,0,0,0.05,87.9,0)" xlink:href="#ae"/></g><path d="M106-169C34-169 62-67 57 0H25v-261h32l-1 103c12-21 28-36 61-36 89 0 53 116 60 194h-32v-121c2-32-8-49-39-48" id="an"/><g id="x"><use transform="matrix(0.05,0,0,0.05,0,0)" xlink:href="#al"/><use transform="matrix(0.05,0,0,0.05,12.950000000000001,0)" xlink:href="#S"/><use transform="matrix(0.05,0,0,0.05,22.950000000000003,0)" xlink:href="#T"/><use transform="matrix(0.05,0,0,0.05,27.950000000000003,0)" xlink:href="#aj"/><use transform="matrix(0.05,0,0,0.05,36.95,0)" xlink:href="#an"/><use transform="matrix(0.05,0,0,0.05,46.95,0)" xlink:href="#ad"/><use transform="matrix(0.05,0,0,0.05,56.95,0)" xlink:href="#X"/></g><g id="y"><use transform="matrix(0.05,0,0,0.05,0,0)" xlink:href="#R"/><use transform="matrix(0.05,0,0,0.05,5.95,0)" xlink:href="#S"/><use transform="matrix(0.05,0,0,0.05,15.949999999999998,0)" xlink:href="#T"/><use transform="matrix(0.05,0,0,0.05,20.95,0)" xlink:href="#U"/><use transform="matrix(0.05,0,0,0.05,24.9,0)" xlink:href="#V"/><use transform="matrix(0.05,0,0,0.05,34.9,0)" xlink:href="#W"/></g><g id="z"><use transform="matrix(0.05,0,0,0.05,0,0)" xlink:href="#R"/><use transform="matrix(0.05,0,0,0.05,5.95,0)" xlink:href="#ad"/><use transform="matrix(0.05,0,0,0.05,15.949999999999998,0)" xlink:href="#aj"/><use transform="matrix(0.05,0,0,0.05,24.95,0)" xlink:href="#ae"/><use transform="matrix(0.05,0,0,0.05,34.95,0)" xlink:href="#Y"/><use transform="matrix(0.05,0,0,0.05,49.900000000000006,0)" xlink:href="#Y"/><use transform="matrix(0.05,0,0,0.05,64.85000000000001,0)" xlink:href="#ad"/><use transform="matrix(0.05,0,0,0.05,74.85000000000001,0)" xlink:href="#V"/><use transform="matrix(0.05,0,0,0.05,84.85000000000001,0)" xlink:href="#Z"/><use transform="matrix(0.05,0,0,0.05,94.85000000000001,0)" xlink:href="#S"/><use transform="matrix(0.05,0,0,0.05,104.85000000000001,0)" xlink:href="#T"/><use transform="matrix(0.05,0,0,0.05,109.85000000000001,0)" xlink:href="#U"/><use transform="matrix(0.05,0,0,0.05,113.80000000000001,0)" xlink:href="#ae"/><use transform="matrix(0.05,0,0,0.05,123.80000000000001,0)" xlink:href="#V"/><use transform="matrix(0.05,0,0,0.05,133.8,0)" xlink:href="#X"/></g><g id="A"><use transform="matrix(0.05,0,0,0.05,0,0)" xlink:href="#R"/><use transform="matrix(0.05,0,0,0.05,5.95,0)" xlink:href="#ad"/><use transform="matrix(0.05,0,0,0.05,15.949999999999998,0)" xlink:href="#aj"/><use transform="matrix(0.05,0,0,0.05,24.95,0)" xlink:href="#ae"/><use transform="matrix(0.05,0,0,0.05,34.95,0)" xlink:href="#Y"/><use transform="matrix(0.05,0,0,0.05,49.900000000000006,0)" xlink:href="#Y"/><use transform="matrix(0.05,0,0,0.05,64.85000000000001,0)" xlink:href="#ad"/><use transform="matrix(0.05,0,0,0.05,74.85000000000001,0)" xlink:href="#V"/><use transform="matrix(0.05,0,0,0.05,84.85000000000001,0)" xlink:href="#Z"/><use transform="matrix(0.05,0,0,0.05,94.85000000000001,0)" xlink:href="#S"/><use transform="matrix(0.05,0,0,0.05,104.85000000000001,0)" xlink:href="#T"/><use transform="matrix(0.05,0,0,0.05,109.85000000000001,0)" xlink:href="#U"/><use transform="matrix(0.05,0,0,0.05,113.80000000000001,0)" xlink:href="#ae"/><use transform="matrix(0.05,0,0,0.05,123.80000000000001,0)" xlink:href="#V"/><use transform="matrix(0.05,0,0,0.05,133.8,0)" xlink:href="#ab"/><use transform="matrix(0.05,0,0,0.05,143.8,0)" xlink:href="#U"/><use transform="matrix(0.05,0,0,0.05,147.75,0)" xlink:href="#Y"/><use transform="matrix(0.05,0,0,0.05,162.7,0)" xlink:href="#Z"/><use transform="matrix(0.05,0,0,0.05,172.7,0)" xlink:href="#aa"/><use transform="matrix(0.05,0,0,0.05,182.7,0)" xlink:href="#ab"/><use transform="matrix(0.05,0,0,0.05,192.7,0)" xlink:href="#U"/><use transform="matrix(0.05,0,0,0.05,196.64999999999998,0)" xlink:href="#Z"/></g><g id="B"><use transform="matrix(0.05,0,0,0.05,0,0)" xlink:href="#W"/><use transform="matrix(0.05,0,0,0.05,10,0)" xlink:href="#ad"/><use transform="matrix(0.05,0,0,0.05,20,0)" xlink:href="#V"/><use transform="matrix(0.05,0,0,0.05,30,0)" xlink:href="#R"/><use transform="matrix(0.05,0,0,0.05,35.95,0)" xlink:href="#ad"/><use transform="matrix(0.05,0,0,0.05,45.95,0)" xlink:href="#X"/></g><g id="C"><use transform="matrix(0.05,0,0,0.05,0,0)" xlink:href="#W"/><use transform="matrix(0.05,0,0,0.05,10,0)" xlink:href="#ad"/><use transform="matrix(0.05,0,0,0.05,20,0)" xlink:href="#V"/><use transform="matrix(0.05,0,0,0.05,30,0)" xlink:href="#R"/><use transform="matrix(0.05,0,0,0.05,35.95,0)" xlink:href="#ad"/></g><g id="D"><use transform="matrix(0.05,0,0,0.05,0,0)" xlink:href="#aj"/><use transform="matrix(0.05,0,0,0.05,9,0)" xlink:href="#ae"/><use transform="matrix(0.05,0,0,0.05,19,0)" xlink:href="#ac"/><use transform="matrix(0.05,0,0,0.05,29,0)" xlink:href="#V"/><use transform="matrix(0.05,0,0,0.05,39,0)" xlink:href="#T"/><use transform="matrix(0.05,0,0,0.05,44,0)" xlink:href="#R"/><use transform="matrix(0.05,0,0,0.05,49.95,0)" xlink:href="#U"/><use transform="matrix(0.05,0,0,0.05,53.900000000000006,0)" xlink:href="#ad"/><use transform="matrix(0.05,0,0,0.05,63.900000000000006,0)" xlink:href="#X"/></g><g id="E"><use transform="matrix(0.05,0,0,0.05,0,0)" xlink:href="#am"/><use transform="matrix(0.05,0,0,0.05,9,0)" xlink:href="#ad"/><use transform="matrix(0.05,0,0,0.05,19,0)" xlink:href="#ah"/><use transform="matrix(0.05,0,0,0.05,28,0)" xlink:href="#al"/><use transform="matrix(0.05,0,0,0.05,40.95,0)" xlink:href="#ae"/><use transform="matrix(0.05,0,0,0.05,50.95,0)" xlink:href="#R"/><use transform="matrix(0.05,0,0,0.05,56.900000000000006,0)" xlink:href="#Z"/><use transform="matrix(0.05,0,0,0.05,66.9,0)" xlink:href="#X"/></g><g id="F"><use transform="matrix(0.05,0,0,0.05,0,0)" xlink:href="#am"/><use transform="matrix(0.05,0,0,0.05,9,0)" xlink:href="#ad"/><use transform="matrix(0.05,0,0,0.05,19,0)" xlink:href="#ah"/><use transform="matrix(0.05,0,0,0.05,28,0)" xlink:href="#al"/><use transform="matrix(0.05,0,0,0.05,40.95,0)" xlink:href="#ae"/><use transform="matrix(0.05,0,0,0.05,50.95,0)" xlink:href="#R"/><use transform="matrix(0.05,0,0,0.05,56.900000000000006,0)" xlink:href="#Z"/></g><g id="G"><use transform="matrix(0.05,0,0,0.05,0,0)" xlink:href="#ak"/><use transform="matrix(0.05,0,0,0.05,10,0)" xlink:href="#ad"/><use transform="matrix(0.05,0,0,0.05,20,0)" xlink:href="#R"/><use transform="matrix(0.05,0,0,0.05,25.950000000000003,0)" xlink:href="#X"/><use transform="matrix(0.05,0,0,0.05,34.95,0)" xlink:href="#ae"/><use transform="matrix(0.05,0,0,0.05,44.95,0)" xlink:href="#V"/></g><g id="H"><use transform="matrix(0.05,0,0,0.05,0,0)" xlink:href="#S"/><use transform="matrix(0.05,0,0,0.05,10,0)" xlink:href="#aj"/><use transform="matrix(0.05,0,0,0.05,19,0)" xlink:href="#T"/><use transform="matrix(0.05,0,0,0.05,24,0)" xlink:href="#ae"/><use transform="matrix(0.05,0,0,0.05,34,0)" xlink:href="#R"/><use transform="matrix(0.05,0,0,0.05,39.95,0)" xlink:href="#ab"/><use transform="matrix(0.05,0,0,0.05,49.95,0)" xlink:href="#U"/><use transform="matrix(0.05,0,0,0.05,53.900000000000006,0)" xlink:href="#Z"/></g><g id="I"><use transform="matrix(0.05,0,0,0.05,0,0)" xlink:href="#V"/><use transform="matrix(0.05,0,0,0.05,10,0)" xlink:href="#S"/><use transform="matrix(0.05,0,0,0.05,20,0)" xlink:href="#Y"/><use transform="matrix(0.05,0,0,0.05,34.95,0)" xlink:href="#ad"/></g><g id="J"><use transform="matrix(0.05,0,0,0.05,0,0)" xlink:href="#S"/><use transform="matrix(0.05,0,0,0.05,10,0)" xlink:href="#aj"/><use transform="matrix(0.05,0,0,0.05,19,0)" xlink:href="#T"/><use transform="matrix(0.05,0,0,0.05,24,0)" xlink:href="#ae"/><use transform="matrix(0.05,0,0,0.05,34,0)" xlink:href="#R"/><use transform="matrix(0.05,0,0,0.05,39.95,0)" xlink:href="#X"/></g><g id="K"><use transform="matrix(0.05,0,0,0.05,0,0)" xlink:href="#ak"/><use transform="matrix(0.05,0,0,0.05,10,0)" xlink:href="#ad"/><use transform="matrix(0.05,0,0,0.05,20,0)" xlink:href="#R"/><use transform="matrix(0.05,0,0,0.05,25.950000000000003,0)" xlink:href="#X"/><use transform="matrix(0.05,0,0,0.05,34.95,0)" xlink:href="#ae"/><use transform="matrix(0.05,0,0,0.05,44.95,0)" xlink:href="#V"/><use transform="matrix(0.05,0,0,0.05,54.95,0)" xlink:href="#ab"/><use transform="matrix(0.05,0,0,0.05,64.95,0)" xlink:href="#U"/><use transform="matrix(0.05,0,0,0.05,68.9,0)" xlink:href="#Z"/></g><g id="L"><use transform="matrix(0.05,0,0,0.05,0,0)" xlink:href="#al"/><use transform="matrix(0.05,0,0,0.05,12.950000000000001,0)" xlink:href="#R"/><use transform="matrix(0.05,0,0,0.05,18.900000000000002,0)" xlink:href="#U"/><use transform="matrix(0.05,0,0,0.05,22.85,0)" xlink:href="#T"/><use transform="matrix(0.05,0,0,0.05,27.85,0)" xlink:href="#ad"/><use transform="matrix(0.05,0,0,0.05,37.85,0)" xlink:href="#R"/><use transform="matrix(0.05,0,0,0.05,43.800000000000004,0)" xlink:href="#X"/></g><g id="M"><use transform="matrix(0.05,0,0,0.05,0,0)" xlink:href="#Z"/><use transform="matrix(0.05,0,0,0.05,10,0)" xlink:href="#U"/><use transform="matrix(0.05,0,0,0.05,13.949999999999998,0)" xlink:href="#R"/><use transform="matrix(0.05,0,0,0.05,19.9,0)" xlink:href="#ad"/><use transform="matrix(0.05,0,0,0.05,29.899999999999995,0)" xlink:href="#aj"/><use transform="matrix(0.05,0,0,0.05,38.9,0)" xlink:href="#T"/><use transform="matrix(0.05,0,0,0.05,43.9,0)" xlink:href="#ae"/><use transform="matrix(0.05,0,0,0.05,53.900000000000006,0)" xlink:href="#R"/><use transform="matrix(0.05,0,0,0.05,59.85,0)" xlink:href="#X"/></g><g id="N"><use transform="matrix(0.05,0,0,0.05,0,0)" xlink:href="#ak"/><use transform="matrix(0.05,0,0,0.05,10,0)" xlink:href="#R"/><use transform="matrix(0.05,0,0,0.05,15.949999999999998,0)" xlink:href="#ae"/><use transform="matrix(0.05,0,0,0.05,25.950000000000003,0)" xlink:href="#Z"/><use transform="matrix(0.05,0,0,0.05,35.95,0)" xlink:href="#ac"/><use transform="matrix(0.05,0,0,0.05,45.95,0)" xlink:href="#aj"/><use transform="matrix(0.05,0,0,0.05,54.95,0)" xlink:href="#T"/><use transform="matrix(0.05,0,0,0.05,59.95,0)" xlink:href="#U"/><use transform="matrix(0.05,0,0,0.05,63.900000000000006,0)" xlink:href="#ae"/><use transform="matrix(0.05,0,0,0.05,73.9,0)" xlink:href="#V"/><use transform="matrix(0.05,0,0,0.05,83.9,0)" xlink:href="#ab"/><use transform="matrix(0.05,0,0,0.05,93.9,0)" xlink:href="#aj"/><use transform="matrix(0.05,0,0,0.05,102.9,0)" xlink:href="#ae"/><use transform="matrix(0.05,0,0,0.05,112.9,0)" xlink:href="#Y"/><use transform="matrix(0.05,0,0,0.05,127.85000000000001,0)" xlink:href="#ak"/><use transform="matrix(0.05,0,0,0.05,137.85000000000002,0)" xlink:href="#S"/><use transform="matrix(0.05,0,0,0.05,147.85000000000002,0)" xlink:href="#V"/><use transform="matrix(0.05,0,0,0.05,157.85000000000002,0)" xlink:href="#ah"/></g><g id="O"><use transform="matrix(0.05,0,0,0.05,0,0)" xlink:href="#aj"/><use transform="matrix(0.05,0,0,0.05,9,0)" xlink:href="#ae"/><use transform="matrix(0.05,0,0,0.05,19,0)" xlink:href="#Y"/><use transform="matrix(0.05,0,0,0.05,33.95,0)" xlink:href="#ak"/><use transform="matrix(0.05,0,0,0.05,43.95,0)" xlink:href="#S"/><use transform="matrix(0.05,0,0,0.05,53.95,0)" xlink:href="#V"/><use transform="matrix(0.05,0,0,0.05,63.95,0)" xlink:href="#ah"/><use transform="matrix(0.05,0,0,0.05,72.95,0)" xlink:href="#ab"/><use transform="matrix(0.05,0,0,0.05,82.95,0)" xlink:href="#U"/><use transform="matrix(0.05,0,0,0.05,86.9,0)" xlink:href="#Z"/></g><g id="P"><use transform="matrix(0.05,0,0,0.05,0,0)" xlink:href="#aj"/><use transform="matrix(0.05,0,0,0.05,9,0)" xlink:href="#ae"/><use transform="matrix(0.05,0,0,0.05,19,0)" xlink:href="#Y"/><use transform="matrix(0.05,0,0,0.05,33.95,0)" xlink:href="#ak"/><use transform="matrix(0.05,0,0,0.05,43.95,0)" xlink:href="#S"/><use transform="matrix(0.05,0,0,0.05,53.95,0)" xlink:href="#V"/><use transform="matrix(0.05,0,0,0.05,63.95,0)" xlink:href="#ah"/></g><g id="Q"><use transform="matrix(0.05,0,0,0.05,0,0)" xlink:href="#aj"/><use transform="matrix(0.05,0,0,0.05,9,0)" xlink:href="#ae"/><use transform="matrix(0.05,0,0,0.05,19,0)" xlink:href="#Y"/><use transform="matrix(0.05,0,0,0.05,33.95,0)" xlink:href="#ak"/><use transform="matrix(0.05,0,0,0.05,43.95,0)" xlink:href="#S"/><use transform="matrix(0.05,0,0,0.05,53.95,0)" xlink:href="#V"/><use transform="matrix(0.05,0,0,0.05,63.95,0)" xlink:href="#ah"/><use transform="matrix(0.05,0,0,0.05,72.95,0)" xlink:href="#ab"/><use transform="matrix(0.05,0,0,0.05,82.95,0)" xlink:href="#V"/><use transform="matrix(0.05,0,0,0.05,92.95,0)" xlink:href="#S"/><use transform="matrix(0.05,0,0,0.05,102.95,0)" xlink:href="#Y"/><use transform="matrix(0.05,0,0,0.05,117.9,0)" xlink:href="#ad"/></g></defs></g></svg>